<svg id="Layer_1" data-name="Layer 1" xmlns="http://www.w3.org/2000/svg" viewBox="0 0 72 64.09"><defs><style>.cls-1{fill:#dc1e3d;}</style></defs><path class="cls-1" d="M61.18,36a31.14,31.14,0,0,1,9.91,16.63,31.72,31.72,0,0,1,.83,8,7.76,7.76,0,0,1-8,7.35A8,8,0,0,1,56,60c-.21-6.61-3.33-11.37-9.15-14.38a14.78,14.78,0,0,0-7-1.56q-9.87,0-19.75,0A19.94,19.94,0,0,1,.92,30C-2.83,18,5.27,5.42,17.69,4.27c4.86-.46,9.78-.21,14.67-.25,2.75,0,5.52-.16,8.27.05A7.89,7.89,0,0,1,48,12.33,8,8,0,0,1,39.84,20c-6.62.05-13.25,0-19.88,0a3.8,3.8,0,0,0-3.7,2.55,3.68,3.68,0,0,0,1,4.35A4.75,4.75,0,0,0,19.91,28c7,.08,14.06.13,21.08,0,7.83-.13,14.85-7.33,15-15.21.09-4.17,1.86-7,5.15-8.24A8,8,0,0,1,72,12.12,31.61,31.61,0,0,1,62.06,35.2C61.81,35.45,61.54,35.68,61.18,36Z" transform="translate(0 -3.95)"/><path class="cls-1" d="M24.06,52.05c5.33,0,10.67,0,16,0a8,8,0,0,1,2.17,15.62,9.12,9.12,0,0,1-2.49.34q-15.67,0-31.35,0C4.06,68,.9,65.46.19,61.54a7.92,7.92,0,0,1,7.86-9.48C13.39,52,18.72,52.05,24.06,52.05Z" transform="translate(0 -3.95)"/></svg>